<svg version="1.1" id="Layer_1" xmlns="http://www.w3.org/2000/svg" xmlns:xlink="http://www.w3.org/1999/xlink" x="0px" y="0px"
	 width="100%" viewBox="0 0 256 256" enable-background="new 0 0 256 256" xml:space="preserve">
<path fill="#000000" opacity="1.000000" stroke="none" 
	d="
M76.468658,257.000000 
	C80.333794,253.161636 85.816002,253.136841 91.051811,252.866272 
	C97.699219,252.522766 104.384552,252.641434 111.043953,252.856812 
	C126.380524,253.352859 141.213226,250.583191 155.744492,246.046753 
	C175.516800,239.874146 195.834503,236.504395 216.309128,233.947922 
	C223.532364,233.046036 230.497467,234.490738 237.590714,238.481186 
	C237.590714,232.863281 237.995819,227.943497 237.518021,223.111008 
	C235.783981,205.572220 233.491760,188.086487 231.897751,170.536469 
	C229.560974,144.808701 225.211868,119.406418 220.306702,94.083038 
	C215.807953,70.857903 211.240829,47.655598 212.671539,23.787214 
	C212.850449,20.802340 212.273743,17.899597 210.969330,14.815020 
	C205.827042,17.444508 203.737579,22.292334 200.853439,26.407446 
	C200.550919,26.839096 200.671494,27.707323 200.836731,28.306545 
	C206.692184,49.539471 206.461853,71.306175 207.656204,93.082863 
	C209.031570,118.159866 209.523773,143.280258 211.314285,168.329453 
	C211.865341,176.038696 214.752457,183.177032 217.763840,190.265869 
	C221.583710,199.257828 221.987686,208.680939 219.841599,218.132401 
	C218.854065,222.481537 216.291611,224.639191 211.232010,225.538422 
	C194.734604,228.470474 177.781311,230.068527 162.222763,236.677109 
	C145.014206,243.986542 127.039780,246.330460 108.693085,247.376038 
	C98.061295,247.981964 87.490768,249.513535 76.808167,249.402679 
	C73.587334,249.369263 70.536690,248.717941 67.553528,247.629028 
	C66.409424,247.211411 65.403450,246.500427 65.669296,245.065033 
	C65.956512,243.514282 67.266830,243.533981 68.425735,243.617767 
	C83.280609,244.691681 97.990486,242.465408 112.756828,241.619980 
	C119.715263,241.221573 126.642136,240.243210 133.576736,239.468674 
	C137.266190,239.056610 138.741684,237.244965 138.794083,233.207687 
	C138.952194,221.028259 137.864075,208.900787 137.749329,196.740494 
	C137.740219,195.775269 137.879211,194.703323 136.338806,193.632919 
	C127.531937,197.729660 120.811226,203.911682 117.640068,214.191208 
	C123.061684,214.946594 128.967209,213.385818 131.957397,219.122055 
	C131.262726,221.023178 129.893845,221.185928 128.572937,220.873764 
	C124.767265,219.974411 121.022316,220.107773 117.175125,220.728836 
	C113.214081,221.368286 111.676552,218.927475 111.877922,215.354584 
	C112.179756,209.999420 114.512505,205.335678 117.856766,201.328690 
	C122.931229,195.248596 128.678925,189.973343 137.591080,188.856354 
	C136.824966,180.837311 137.253006,172.877563 135.642059,165.043015 
	C135.181885,162.805115 133.608902,161.932755 131.532043,162.646866 
	C119.462555,166.797089 107.339767,156.172150 106.095589,142.042770 
	C105.085136,130.567688 105.989624,119.055489 110.365532,108.127289 
	C110.921387,106.739136 111.553871,105.371521 112.272728,104.061256 
	C113.251503,102.277206 114.692276,101.130997 116.757454,102.251648 
	C118.630791,103.268204 118.353065,105.048080 117.645859,106.646347 
	C114.924446,112.796646 113.388786,119.201088 112.686508,125.901756 
	C112.092880,131.565750 111.800064,137.242432 112.308205,142.858398 
	C112.898979,149.387695 116.286758,154.633408 122.371368,157.336548 
	C127.833557,159.763168 134.968719,157.551056 139.367889,151.942596 
	C148.852356,139.850937 153.825424,125.805557 155.797577,110.688133 
	C156.833710,102.745628 154.336868,96.797691 144.688522,95.762413 
	C146.980911,92.374588 149.368820,92.628334 151.749252,93.289055 
	C157.217957,94.806953 161.025360,100.188187 161.237915,106.585747 
	C161.613388,117.886307 157.811935,128.214142 153.487213,138.337479 
	C150.743515,144.759933 147.679047,151.102768 142.645767,156.178101 
	C141.167542,157.668671 141.168243,159.431900 141.440277,161.294571 
	C142.378723,167.720734 143.284409,174.152847 143.284103,180.664734 
	C143.283981,183.028244 144.112045,184.413605 146.324387,185.769531 
	C152.701889,189.678284 158.871063,193.952438 164.929871,198.348007 
	C170.212479,202.180466 170.476822,205.920837 166.363068,211.043167 
	C164.439102,213.438858 161.857544,214.965240 159.299438,216.520111 
	C157.901993,217.369492 156.405899,217.641037 155.347763,216.043961 
	C154.427475,214.654877 155.296188,213.580276 156.252808,212.538284 
	C163.589111,204.547119 163.574066,204.551773 154.529846,198.472717 
	C152.872345,197.358627 151.278503,196.144180 149.704376,194.913300 
	C148.156113,193.702637 146.670303,192.412140 144.173141,190.340332 
	C144.134338,206.224838 145.779037,221.017334 145.006226,236.007874 
	C149.265350,236.336273 152.271881,234.708908 155.259003,233.508789 
	C173.679001,226.108261 193.030853,223.264084 212.614456,221.547501 
	C215.121368,221.327774 215.531570,220.185532 215.594788,218.012451 
	C215.941696,206.088608 214.220245,194.766113 209.114212,183.695465 
	C204.309265,173.277649 204.030884,161.621063 204.195999,150.320053 
	C204.605179,122.313980 200.709335,94.490906 201.345703,66.445419 
	C201.610306,54.784046 199.232635,42.954781 196.818878,31.368795 
	C195.888931,26.905024 193.992004,24.869982 188.829849,26.008669 
	C182.559265,27.391859 176.243210,26.061090 170.165695,23.986361 
	C158.139832,19.880993 146.470276,18.633690 133.693222,22.749258 
	C116.013863,28.443892 97.486710,29.059156 78.847664,27.658274 
	C66.922142,26.761967 54.937008,26.407125 43.014027,25.316479 
	C35.855309,24.661640 29.204601,22.575556 23.833277,17.559673 
	C25.150799,14.895827 27.165581,15.262547 28.451138,15.910244 
	C38.431541,20.938643 49.351521,19.618645 59.868538,20.470663 
	C72.133553,21.464294 84.490898,21.596176 96.807983,21.591467 
	C109.330711,21.586679 121.835251,20.122175 133.649872,15.974881 
	C145.941116,11.660268 157.691589,13.477081 169.257675,17.518902 
	C175.527069,19.709774 181.627106,21.171560 188.229660,20.779619 
	C191.708908,20.573088 195.491760,19.860411 196.926117,24.378016 
	C200.807404,22.708426 201.382660,19.190613 203.410660,16.874519 
	C206.029160,13.884053 207.711533,8.449611 212.740326,10.194050 
	C217.502106,11.845869 217.991928,17.047548 218.173965,21.640383 
	C218.470474,29.121758 218.406265,36.601948 218.791260,44.097389 
	C219.770203,63.156521 224.298416,81.589264 227.731354,100.210625 
	C232.104416,123.931664 236.192062,147.668777 238.354767,171.725845 
	C239.917618,189.110428 242.185287,206.430756 243.994553,223.794769 
	C244.390182,227.591568 244.290726,231.454575 244.211685,235.282806 
	C244.094559,240.955475 240.422729,244.300323 235.460434,241.988724 
	C224.735229,236.992615 214.239426,239.905640 203.622818,241.397308 
	C182.446823,244.372620 162.159012,250.989807 141.317322,256.816162 
	C119.645775,257.000000 98.291542,257.000000 76.468658,257.000000 
z"/>
<path fill="#000000" opacity="1.000000" stroke="none" 
	d="
M47.379921,64.216698 
	C46.612274,58.557381 47.050343,53.120838 44.255207,48.257301 
	C42.847572,45.808014 44.558098,44.909363 46.580246,44.560711 
	C50.504986,43.884022 54.503349,42.604355 58.382515,42.869953 
	C76.075928,44.081387 92.724266,39.775826 109.212524,34.186481 
	C122.020416,29.844736 135.108917,26.501686 148.682587,26.276405 
	C163.168701,26.035978 177.576492,27.622185 191.920898,29.635038 
	C193.108948,29.801748 194.204117,30.100580 194.659683,31.486351 
	C193.708405,34.170086 191.380264,33.280022 189.602234,33.311676 
	C180.095734,33.480927 170.688553,32.048847 161.232376,31.381670 
	C144.002960,30.166056 127.341377,33.294807 111.161263,38.741150 
	C93.516022,44.680664 75.753418,49.272800 56.928646,48.148045 
	C55.053230,48.035992 55.043808,48.193710 52.028175,49.929222 
	C56.102180,53.480892 55.589325,58.264851 55.151012,62.795586 
	C53.976624,74.935043 54.704231,87.013336 55.101494,99.161461 
	C55.961555,125.461617 55.432407,151.808868 56.384995,178.103775 
	C57.040722,196.204086 59.672478,214.184875 63.997013,231.846298 
	C64.155502,232.493576 64.312935,233.141922 64.500313,233.781158 
	C65.108170,235.854797 65.282814,237.977386 62.849995,238.828934 
	C60.276966,239.729599 59.387489,237.698563 58.638615,235.734787 
	C55.884377,228.512299 54.987259,220.883652 53.779362,213.331635 
	C47.618130,174.810501 48.820686,135.953400 48.997952,97.181557 
	C49.040310,87.917290 48.820480,78.666824 48.777611,69.409851 
	C48.769634,67.687576 48.207630,66.147690 47.379921,64.216698 
z"/>
<path fill="#000000" opacity="1.000000" stroke="none" 
	d="
M33.903030,162.021347 
	C33.818718,182.698227 37.280567,202.594513 38.756531,222.650650 
	C39.003014,225.999985 39.229847,229.317032 38.018490,232.514877 
	C37.387653,234.180206 36.231674,235.433868 34.231812,235.005966 
	C32.485138,234.632233 31.843973,233.187439 31.902502,231.598038 
	C32.542862,214.208191 28.744209,197.179489 27.738312,179.917542 
	C26.603874,160.449799 27.437395,140.959641 26.642826,121.506058 
	C26.086782,107.892265 24.604429,94.315498 23.488960,80.726036 
	C23.255463,77.881424 21.657579,75.324356 21.199793,72.618027 
	C20.343317,67.554710 18.710516,62.800171 20.385115,57.105122 
	C22.290834,50.624069 19.467825,43.660133 18.135429,36.982059 
	C17.322371,32.906944 16.396152,28.854490 15.534611,24.788921 
	C15.159451,23.018562 14.319392,20.766439 16.764317,20.145868 
	C19.431049,19.468996 19.977417,21.997757 20.510914,23.865297 
	C23.298725,33.624218 25.933683,43.454624 27.097563,53.541428 
	C31.236645,89.412926 33.959969,125.384544 33.903030,162.021347 
z"/>
<path fill="#000000" opacity="1.000000" stroke="none" 
	d="
M112.439331,66.695168 
	C113.189316,66.673271 113.522102,66.657440 113.854202,66.666573 
	C117.504303,66.767082 121.738274,66.314308 123.235451,70.578461 
	C124.764374,74.933067 120.865318,77.002083 118.191406,79.392845 
	C117.092567,80.375320 115.674553,81.054405 115.092102,82.963181 
	C119.203400,84.813477 123.094887,82.838348 126.959831,82.199333 
	C130.085785,81.682510 132.933273,81.709595 135.398193,83.860672 
	C136.555832,84.870895 137.457611,86.185448 136.564606,87.809410 
	C135.740417,89.308189 134.341919,89.498543 132.702255,89.390739 
	C124.604691,88.858345 116.515869,89.418015 108.436104,89.868454 
	C105.279610,90.044418 104.306427,88.076393 103.844460,85.722473 
	C102.854004,80.675697 102.107208,75.581276 101.248604,70.508400 
	C100.573036,66.516922 99.233719,62.923809 96.400345,59.799358 
	C93.478546,56.577400 94.295433,53.390678 98.320206,52.042656 
	C103.830254,50.197159 109.578003,49.249462 115.354408,48.600960 
	C117.095581,48.405483 118.878090,48.688862 119.341637,50.711979 
	C119.829979,52.843281 118.110374,53.681229 116.511559,54.166645 
	C112.515564,55.379875 109.213631,59.078888 104.334152,56.976929 
	C106.186195,66.260170 107.087074,67.346680 112.439331,66.695168 
M114.380005,75.312599 
	C113.534790,72.531967 113.489113,72.523613 108.882324,74.424599 
	C109.011734,76.192787 108.859818,78.060829 110.109177,80.091164 
	C111.611862,78.449242 112.815575,77.134003 114.380005,75.312599 
z"/>
<path fill="#000000" opacity="1.000000" stroke="none" 
	d="
M65.123871,72.645462 
	C66.958061,70.301849 69.612488,69.757118 71.380981,67.614159 
	C72.940666,65.724213 75.147255,67.138130 76.358711,68.939568 
	C77.546700,70.706116 78.420464,72.683983 79.423203,74.552460 
	C81.001846,74.034935 80.844040,72.590912 81.466515,71.666504 
	C83.936935,67.997765 87.309525,67.647186 89.924820,71.289734 
	C93.308746,76.002823 95.752419,81.344772 99.638275,85.767899 
	C100.899597,87.203606 100.898521,89.257530 99.007301,90.609840 
	C97.281090,91.844170 95.928329,90.983826 94.624191,89.713318 
	C92.002411,87.159172 89.744415,84.309479 87.570763,80.627365 
	C85.677521,83.642769 85.297234,88.030792 80.967819,87.165260 
	C75.874985,86.147118 75.290833,81.159096 73.253906,77.157730 
	C70.687500,78.312805 70.227707,80.265564 70.625900,82.751503 
	C70.967331,84.882950 71.112976,87.044983 71.397766,89.186493 
	C71.685585,91.350861 71.557846,93.548721 68.893387,93.704773 
	C66.218567,93.861412 66.097115,91.515862 65.748146,89.478554 
	C64.814735,84.029121 64.698204,78.559479 65.123871,72.645462 
z"/>
<path fill="#000000" opacity="1.000000" stroke="none" 
	d="
M125.262527,145.186905 
	C122.528816,143.056198 120.756203,140.858063 121.535133,137.670776 
	C122.924004,136.867035 123.752609,137.460251 124.502968,138.126846 
	C129.720612,142.762024 134.108902,142.279877 138.227280,136.536209 
	C139.093567,135.328049 139.810516,134.006653 140.529984,132.700912 
	C141.430847,131.065933 142.653366,129.955246 144.530106,130.935669 
	C146.428864,131.927567 145.966934,133.648041 145.426682,135.305344 
	C142.586472,144.018402 134.851746,147.955795 125.262527,145.186905 
z"/>
<path fill="#000000" opacity="1.000000" stroke="none" 
	d="
M141.837128,112.292343 
	C142.860550,114.579338 143.720779,116.540138 144.442505,118.550667 
	C145.038849,120.211876 145.153641,122.112076 143.259125,122.825630 
	C140.978455,123.684616 139.959732,121.807709 139.413452,120.018456 
	C138.174576,115.960930 136.461823,112.348328 131.939224,111.025459 
	C134.936447,106.761444 136.919098,107.031471 141.837128,112.292343 
z"/>
<path fill="#000000" opacity="1.000000" stroke="none" 
	d="
M123.974228,130.968933 
	C118.276581,129.709488 119.030182,125.327370 117.657906,120.681969 
	C121.144035,121.826859 124.396744,119.731148 125.663986,122.699554 
	C126.753868,125.252495 127.210793,128.525711 123.974228,130.968933 
z"/>
<path fill="#000000" opacity="1.000000" stroke="none" 
	d="
M126.644493,100.478096 
	C124.260612,99.785110 121.744385,99.863083 121.363701,97.027451 
	C121.181725,95.671982 122.113472,94.913521 123.397804,94.648254 
	C125.879288,94.135757 128.018494,94.688423 129.583527,96.788383 
	C130.364624,97.836449 131.496887,98.994537 130.618774,100.338196 
	C129.703125,101.739288 128.272400,101.071098 126.644493,100.478096 
z"/>
</svg>