<svg id="svg" version="1.1" xmlns="http://www.w3.org/2000/svg" xmlns:xlink="http://www.w3.org/1999/xlink" width="400" height="407.05882352941177" viewBox="0, 0, 400,407.05882352941177"><g id="svgg"><path id="path0" d="M317.149 22.678 C 312.572 23.398,313.417 28.494,318.521 30.949 C 322.211 32.724,324.629 35.265,327.358 40.234 C 328.435 42.195,330.213 45.044,331.309 46.564 C 332.531 48.258,333.987 51.071,335.073 53.836 C 336.048 56.316,337.650 59.838,338.634 61.663 C 339.618 63.489,340.796 66.003,341.250 67.250 C 341.705 68.497,342.670 70.092,343.393 70.794 L 344.710 72.069 346.017 70.901 L 347.325 69.733 346.659 66.166 C 346.293 64.205,345.806 61.340,345.576 59.800 C 344.457 52.302,343.151 48.841,337.858 39.338 C 331.544 28.003,323.653 21.655,317.149 22.678 M268.200 46.981 C 267.980 47.063,267.308 47.238,266.707 47.371 C 262.928 48.204,260.301 53.841,262.431 56.549 C 263.821 58.316,264.548 58.511,267.211 57.829 C 270.014 57.111,270.386 57.222,274.600 60.046 C 280.396 63.931,284.056 68.287,290.282 78.713 C 291.428 80.631,293.047 83.190,293.881 84.400 C 294.715 85.610,297.447 90.290,299.953 94.800 C 303.939 101.973,305.509 105.159,308.297 111.725 C 310.085 115.938,314.550 116.415,316.019 112.550 C 316.333 111.724,315.979 110.275,314.141 104.866 C 311.224 96.281,311.070 95.935,307.019 88.811 C 305.139 85.504,303.600 82.662,303.600 82.495 C 303.600 82.114,298.398 72.926,297.296 71.359 C 296.847 70.722,295.753 68.940,294.863 67.400 C 288.854 56.992,273.301 45.082,268.200 46.981 M213.600 67.458 C 207.475 69.944,209.639 77.335,217.338 80.222 C 218.692 80.730,220.880 81.604,222.200 82.163 C 223.798 82.841,225.352 83.184,226.851 83.191 C 231.062 83.208,242.500 90.268,249.984 97.467 C 265.169 112.076,269.967 123.986,274.609 158.600 C 274.933 161.020,275.547 164.800,275.972 167.000 C 276.717 170.849,277.202 174.694,277.963 182.786 C 278.455 188.019,280.447 189.901,282.534 187.103 C 283.489 185.821,283.782 179.545,283.770 160.600 C 283.751 132.386,277.427 112.670,262.890 95.507 C 259.437 91.429,251.379 84.530,246.800 81.730 C 245.150 80.721,242.180 78.858,240.200 77.592 C 228.602 70.171,217.416 65.910,213.600 67.458 M168.000 111.656 C 159.704 112.413,148.842 116.368,131.800 124.839 C 115.406 132.988,112.063 134.905,104.927 140.253 C 100.207 143.791,92.965 148.206,91.230 148.603 C 86.268 149.739,85.214 153.274,87.406 161.418 C 89.674 169.841,92.545 186.968,93.599 198.357 C 93.851 201.083,94.314 204.773,94.628 206.557 C 94.942 208.341,95.477 211.960,95.816 214.600 C 96.464 219.635,99.099 235.113,99.388 235.580 C 99.480 235.730,99.935 238.090,100.398 240.826 C 103.056 256.528,108.434 273.618,115.555 289.000 C 119.132 296.725,130.514 318.904,133.825 324.600 C 136.623 329.412,144.156 344.460,145.365 347.651 C 148.481 355.876,150.269 357.983,153.020 356.671 C 155.815 355.338,155.971 353.292,153.711 347.600 C 153.056 345.950,152.193 343.700,151.793 342.600 C 150.979 340.358,143.911 326.329,141.103 321.381 C 137.245 314.584,123.539 287.349,121.636 282.698 C 115.276 267.157,112.106 256.748,109.243 242.000 C 106.428 227.496,106.016 225.231,105.608 222.000 C 105.372 220.130,104.741 215.810,104.208 212.400 C 103.674 208.990,102.683 200.620,102.006 193.800 C 101.329 186.980,100.508 179.870,100.183 178.000 C 99.858 176.130,99.218 172.440,98.762 169.800 C 98.305 167.160,97.497 163.315,96.966 161.256 C 95.514 155.627,95.858 154.673,100.000 152.866 C 101.595 152.170,103.951 150.687,112.000 145.310 C 114.248 143.809,128.031 136.839,132.000 135.197 C 133.210 134.697,136.990 132.988,140.400 131.400 C 150.047 126.909,150.757 126.598,154.800 125.086 C 178.234 116.324,200.282 121.789,219.474 141.117 C 223.604 145.277,227.738 149.764,230.607 153.200 C 232.352 155.290,233.874 157.090,233.990 157.200 C 238.722 161.698,245.391 176.673,246.458 185.200 C 248.793 203.847,245.685 221.781,235.256 249.842 C 234.127 252.878,229.822 262.516,229.200 263.400 C 229.045 263.620,227.611 266.320,226.012 269.400 C 224.414 272.480,222.790 275.450,222.404 276.000 C 220.686 278.444,211.418 297.222,207.696 305.800 C 205.060 311.876,203.161 316.045,200.498 321.600 C 196.576 329.782,192.346 340.088,190.401 346.200 C 187.484 355.368,182.475 364.316,178.825 366.881 C 176.921 368.219,175.578 368.763,170.114 370.411 C 165.220 371.886,165.935 376.967,171.022 376.865 C 185.408 376.576,192.680 369.106,201.394 345.665 C 205.421 334.832,206.697 331.899,210.473 324.800 C 211.935 322.050,213.885 318.090,214.806 316.000 C 221.628 300.515,226.034 291.462,232.326 280.000 C 235.329 274.530,241.895 261.261,243.114 258.200 C 251.463 237.237,254.777 225.498,256.836 209.600 C 259.400 189.807,255.059 169.082,245.502 155.490 C 237.472 144.069,223.200 129.920,212.400 122.674 C 197.334 112.566,186.765 109.943,168.000 111.656 M138.200 168.603 C 135.654 169.843,134.142 171.764,132.889 175.351 L 131.893 178.200 132.117 194.000 C 132.353 210.776,133.019 221.302,134.583 233.000 C 135.112 236.960,135.659 241.820,135.799 243.800 C 135.939 245.780,136.411 249.470,136.850 252.000 C 137.288 254.530,137.914 258.400,138.240 260.600 C 138.834 264.599,140.813 272.988,141.658 275.087 C 141.905 275.699,142.520 277.550,143.025 279.200 C 145.842 288.402,148.463 293.959,155.573 305.800 C 161.105 315.014,162.732 316.933,164.844 316.729 C 167.477 316.474,167.358 314.837,164.257 308.687 C 161.129 302.483,161.025 301.637,162.757 296.459 C 166.871 284.160,168.614 274.290,168.172 265.800 C 167.599 254.793,168.009 252.299,171.150 247.674 C 173.644 244.001,174.983 244.077,177.093 248.013 C 177.922 249.560,179.424 251.971,180.431 253.370 C 185.355 260.212,186.493 269.270,183.451 277.400 C 182.628 279.600,181.597 282.475,181.160 283.789 C 180.121 286.917,177.612 293.620,177.166 294.459 C 176.297 296.093,174.001 307.438,173.615 312.000 C 173.382 314.750,173.087 318.080,172.959 319.400 C 172.756 321.488,172.836 321.917,173.578 322.700 C 175.565 324.797,176.228 323.580,177.010 316.400 C 178.187 305.586,181.197 295.110,185.629 286.400 C 189.788 278.227,190.455 276.660,191.335 273.000 C 193.793 262.773,191.725 256.250,181.446 241.800 C 179.385 238.902,180.498 237.020,186.673 232.963 C 198.469 225.213,201.920 217.256,196.606 210.058 C 186.850 196.841,172.787 194.496,167.004 205.121 C 165.752 207.423,164.586 208.137,160.672 209.000 C 155.310 210.182,150.586 212.866,146.817 216.869 C 144.591 219.234,143.355 219.460,142.562 217.646 C 141.852 216.023,141.597 186.499,142.247 181.251 C 142.720 177.430,145.599 176.686,151.600 178.834 C 158.607 181.343,160.160 181.635,168.235 181.963 C 172.434 182.133,176.046 182.381,176.261 182.514 C 176.476 182.647,180.960 183.399,186.226 184.185 C 200.478 186.313,203.047 187.213,207.903 191.781 C 216.586 199.950,216.210 206.798,205.377 237.800 C 198.912 256.302,194.950 268.290,194.602 270.400 C 194.439 271.390,194.078 272.650,193.801 273.200 C 193.110 274.570,191.874 284.116,192.197 285.586 C 192.541 287.152,194.526 288.800,196.069 288.800 C 199.059 288.800,200.207 286.663,201.980 277.800 C 202.989 272.754,206.352 262.501,212.802 244.800 C 218.721 228.556,219.709 225.617,221.475 219.000 C 226.471 200.280,222.745 188.670,209.000 180.127 C 205.372 177.873,195.021 175.205,189.868 175.197 C 188.730 175.195,185.208 174.745,182.040 174.197 C 177.710 173.447,174.851 173.200,170.523 173.200 C 163.846 173.200,160.289 172.587,155.018 170.528 C 147.514 167.597,141.645 166.925,138.200 168.603 M181.559 209.379 C 186.409 211.837,189.140 216.183,187.658 219.086 C 186.628 221.103,177.926 230.168,176.420 230.792 C 175.085 231.345,173.083 230.435,172.100 228.829 C 170.229 225.769,165.926 225.153,163.907 227.655 C 162.520 229.373,161.952 233.153,162.780 235.151 L 163.268 236.330 164.690 235.365 C 169.574 232.051,170.839 236.026,166.802 242.000 C 161.078 250.468,160.870 251.449,161.174 268.600 C 161.270 274.051,161.131 276.352,160.472 280.200 C 160.020 282.840,159.451 286.694,159.209 288.764 C 158.699 293.121,158.730 293.044,157.389 293.300 C 155.817 293.600,154.614 290.608,149.467 273.600 C 147.520 267.166,146.002 256.540,146.764 254.678 C 148.073 251.483,148.148 250.595,147.612 244.726 C 146.537 232.982,147.312 227.739,150.668 224.030 C 154.641 219.640,159.519 217.707,167.800 217.244 C 174.983 216.842,177.006 215.604,176.858 211.701 C 176.728 208.275,178.071 207.612,181.559 209.379 " stroke="none" fill="#35352d" fill-rule="evenodd"></path><path id="path1" d="M0.000 203.400 L 0.000 406.800 200.000 406.800 L 400.000 406.800 400.000 203.400 L 400.000 0.000 200.000 0.000 L 0.000 0.000 0.000 203.400 M321.710 23.033 C 326.135 23.795,333.139 30.867,337.858 39.338 C 343.151 48.841,344.457 52.302,345.576 59.800 C 345.806 61.340,346.293 64.205,346.659 66.166 L 347.325 69.733 346.017 70.901 L 344.710 72.069 343.393 70.794 C 342.670 70.092,341.705 68.497,341.250 67.250 C 340.796 66.003,339.618 63.489,338.634 61.663 C 337.650 59.838,336.048 56.316,335.073 53.836 C 333.987 51.071,332.531 48.258,331.309 46.564 C 330.213 45.044,328.435 42.195,327.358 40.234 C 324.629 35.265,322.211 32.724,318.521 30.949 C 314.153 28.848,313.002 26.262,315.303 23.722 C 316.443 22.464,317.651 22.334,321.710 23.033 M275.119 48.722 C 282.645 52.534,290.654 60.110,294.863 67.400 C 295.753 68.940,296.847 70.722,297.296 71.359 C 298.398 72.926,303.600 82.114,303.600 82.495 C 303.600 82.662,305.139 85.504,307.019 88.811 C 311.070 95.935,311.224 96.281,314.141 104.866 C 315.979 110.275,316.333 111.724,316.019 112.550 C 314.550 116.415,310.085 115.938,308.297 111.725 C 305.509 105.159,303.939 101.973,299.953 94.800 C 297.447 90.290,294.715 85.610,293.881 84.400 C 293.047 83.190,291.428 80.631,290.282 78.713 C 284.056 68.287,280.396 63.931,274.600 60.046 C 270.386 57.222,270.014 57.111,267.211 57.829 C 264.548 58.511,263.821 58.316,262.431 56.549 C 260.301 53.841,262.928 48.204,266.707 47.371 C 267.308 47.238,267.980 47.063,268.200 46.981 C 269.272 46.582,272.496 47.393,275.119 48.722 M224.200 69.205 C 229.035 71.098,234.658 74.046,240.200 77.592 C 242.180 78.858,245.150 80.721,246.800 81.730 C 251.379 84.530,259.437 91.429,262.890 95.507 C 277.427 112.670,283.751 132.386,283.770 160.600 C 283.782 179.545,283.489 185.821,282.534 187.103 C 280.447 189.901,278.455 188.019,277.963 182.786 C 277.202 174.694,276.717 170.849,275.972 167.000 C 275.547 164.800,274.933 161.020,274.609 158.600 C 269.967 123.986,265.169 112.076,249.984 97.467 C 242.500 90.268,231.062 83.208,226.851 83.191 C 225.352 83.184,223.798 82.841,222.200 82.163 C 220.880 81.604,218.692 80.730,217.338 80.222 C 210.372 77.609,207.956 72.267,212.062 68.551 C 214.232 66.587,218.039 66.792,224.200 69.205 M188.899 112.162 C 207.372 116.109,229.982 133.417,245.502 155.490 C 250.045 161.951,255.480 175.724,256.595 183.600 C 259.656 205.210,255.866 226.182,243.114 258.200 C 241.895 261.261,235.329 274.530,232.326 280.000 C 226.034 291.462,221.628 300.515,214.806 316.000 C 213.885 318.090,211.935 322.050,210.473 324.800 C 206.697 331.899,205.421 334.832,201.394 345.665 C 192.680 369.106,185.408 376.576,171.022 376.865 C 165.935 376.967,165.220 371.886,170.114 370.411 C 175.578 368.763,176.921 368.219,178.825 366.881 C 182.475 364.316,187.484 355.368,190.401 346.200 C 192.346 340.088,196.576 329.782,200.498 321.600 C 203.161 316.045,205.060 311.876,207.696 305.800 C 211.418 297.222,220.686 278.444,222.404 276.000 C 222.790 275.450,224.414 272.480,226.012 269.400 C 227.611 266.320,229.045 263.620,229.200 263.400 C 229.822 262.516,234.127 252.878,235.256 249.842 C 245.685 221.781,248.793 203.847,246.458 185.200 C 245.391 176.673,238.722 161.698,233.990 157.200 C 233.874 157.090,232.352 155.290,230.607 153.200 C 227.738 149.764,223.604 145.277,219.474 141.117 C 200.282 121.789,178.234 116.324,154.800 125.086 C 150.757 126.598,150.047 126.909,140.400 131.400 C 136.990 132.988,133.210 134.697,132.000 135.197 C 128.031 136.839,114.248 143.809,112.000 145.310 C 103.951 150.687,101.595 152.170,100.000 152.866 C 95.858 154.673,95.514 155.627,96.966 161.256 C 97.497 163.315,98.305 167.160,98.762 169.800 C 99.218 172.440,99.858 176.130,100.183 178.000 C 100.508 179.870,101.329 186.980,102.006 193.800 C 102.683 200.620,103.674 208.990,104.208 212.400 C 104.741 215.810,105.372 220.130,105.608 222.000 C 106.016 225.231,106.428 227.496,109.243 242.000 C 112.106 256.748,115.276 267.157,121.636 282.698 C 123.539 287.349,137.245 314.584,141.103 321.381 C 143.911 326.329,150.979 340.358,151.793 342.600 C 152.193 343.700,153.056 345.950,153.711 347.600 C 155.971 353.292,155.815 355.338,153.020 356.671 C 150.269 357.983,148.481 355.876,145.365 347.651 C 144.156 344.460,136.623 329.412,133.825 324.600 C 130.514 318.904,119.132 296.725,115.555 289.000 C 112.915 283.297,109.914 275.909,107.756 269.800 C 105.474 263.342,101.681 248.405,100.398 240.826 C 99.935 238.090,99.480 235.730,99.388 235.580 C 99.099 235.113,96.464 219.635,95.816 214.600 C 95.477 211.960,94.942 208.341,94.628 206.557 C 94.314 204.773,93.851 201.083,93.599 198.357 C 92.545 186.968,89.674 169.841,87.406 161.418 C 85.214 153.274,86.268 149.739,91.230 148.603 C 92.965 148.206,100.207 143.791,104.927 140.253 C 112.063 134.905,115.406 132.988,131.800 124.839 C 144.438 118.557,151.364 115.674,159.200 113.433 C 167.698 111.002,180.838 110.440,188.899 112.162 M148.018 168.373 C 149.898 168.789,153.048 169.759,155.018 170.528 C 160.289 172.587,163.846 173.200,170.523 173.200 C 174.851 173.200,177.710 173.447,182.040 174.197 C 185.208 174.745,188.730 175.195,189.868 175.197 C 195.021 175.205,205.372 177.873,209.000 180.127 C 222.745 188.670,226.471 200.280,221.475 219.000 C 219.709 225.617,218.721 228.556,212.802 244.800 C 206.352 262.501,202.989 272.754,201.980 277.800 C 200.207 286.663,199.059 288.800,196.069 288.800 C 194.526 288.800,192.541 287.152,192.197 285.586 C 191.874 284.116,193.110 274.570,193.801 273.200 C 194.078 272.650,194.439 271.390,194.602 270.400 C 194.950 268.290,198.912 256.302,205.377 237.800 C 216.210 206.798,216.586 199.950,207.903 191.781 C 203.047 187.213,200.478 186.313,186.226 184.185 C 180.960 183.399,176.476 182.647,176.261 182.514 C 176.046 182.381,172.434 182.133,168.235 181.963 C 160.160 181.635,158.607 181.343,151.600 178.834 C 145.599 176.686,142.720 177.430,142.247 181.251 C 141.597 186.499,141.852 216.023,142.562 217.646 C 143.355 219.460,144.591 219.234,146.817 216.869 C 150.586 212.866,155.310 210.182,160.672 209.000 C 164.586 208.137,165.752 207.423,167.004 205.121 C 172.787 194.496,186.850 196.841,196.606 210.058 C 201.920 217.256,198.469 225.213,186.673 232.963 C 180.498 237.020,179.385 238.902,181.446 241.800 C 191.725 256.250,193.793 262.773,191.335 273.000 C 190.455 276.660,189.788 278.227,185.629 286.400 C 181.197 295.110,178.187 305.586,177.010 316.400 C 176.228 323.580,175.565 324.797,173.578 322.700 C 172.836 321.917,172.756 321.488,172.959 319.400 C 173.087 318.080,173.382 314.750,173.615 312.000 C 174.001 307.438,176.297 296.093,177.166 294.459 C 177.612 293.620,180.121 286.917,181.160 283.789 C 181.597 282.475,182.628 279.600,183.451 277.400 C 186.493 269.270,185.355 260.212,180.431 253.370 C 179.424 251.971,177.922 249.560,177.093 248.013 C 174.983 244.077,173.644 244.001,171.150 247.674 C 168.009 252.299,167.599 254.793,168.172 265.800 C 168.614 274.290,166.871 284.160,162.757 296.459 C 161.025 301.637,161.129 302.483,164.257 308.687 C 167.358 314.837,167.477 316.474,164.844 316.729 C 162.732 316.933,161.105 315.014,155.573 305.800 C 148.463 293.959,145.842 288.402,143.025 279.200 C 142.520 277.550,141.905 275.699,141.658 275.087 C 140.813 272.988,138.834 264.599,138.240 260.600 C 137.914 258.400,137.288 254.530,136.850 252.000 C 136.411 249.470,135.939 245.780,135.799 243.800 C 135.659 241.820,135.112 236.960,134.583 233.000 C 133.019 221.302,132.353 210.776,132.117 194.000 L 131.893 178.200 132.889 175.351 C 135.313 168.413,139.489 166.487,148.018 168.373 M177.210 209.181 C 176.980 209.611,176.822 210.745,176.858 211.701 C 177.006 215.604,174.983 216.842,167.800 217.244 C 159.519 217.707,154.641 219.640,150.668 224.030 C 147.312 227.739,146.537 232.982,147.612 244.726 C 148.148 250.595,148.073 251.483,146.764 254.678 C 146.002 256.540,147.520 267.166,149.467 273.600 C 154.614 290.608,155.817 293.600,157.389 293.300 C 158.730 293.044,158.699 293.121,159.209 288.764 C 159.451 286.694,160.020 282.840,160.472 280.200 C 161.131 276.352,161.270 274.051,161.174 268.600 C 160.870 251.449,161.078 250.468,166.802 242.000 C 170.839 236.026,169.574 232.051,164.690 235.365 L 163.268 236.330 162.780 235.151 C 161.952 233.153,162.520 229.373,163.907 227.655 C 165.926 225.153,170.229 225.769,172.100 228.829 C 174.282 232.395,176.222 231.749,182.247 225.450 C 189.327 218.046,189.689 216.707,185.711 212.632 C 182.189 209.025,178.168 207.392,177.210 209.181 " stroke="none" fill="#fbfbb3" fill-rule="evenodd"></path></g></svg>